<?xml version="1.0" ?><!DOCTYPE svg  PUBLIC '-//W3C//DTD SVG 1.1//EN'  'http://www.w3.org/Graphics/SVG/1.1/DTD/svg11.dtd'><svg enable-background="new 0 0 400 400" height="400px" id="Layer_1" version="1.1" viewBox="0 0 400 400" width="400px" xml:space="preserve" xmlns="http://www.w3.org/2000/svg" xmlns:xlink="http://www.w3.org/1999/xlink"><title/><desc/><path d="M200,363.929c-4.525,0-8.913-1.023-12.689-2.96L64.436,297.956C55.801,293.527,50,284.038,50,274.343  V125.657c0-9.699,5.804-19.188,14.439-23.616L187.312,39.03c3.774-1.936,8.162-2.96,12.688-2.96c4.525,0,8.913,1.024,12.688,2.961  l122.875,63.013c8.636,4.43,14.437,13.918,14.437,23.613v148.687c0,9.694-5.801,19.185-14.435,23.612L212.687,360.97  C208.913,362.906,204.526,363.929,200,363.929z" fill="#2F3238"/><path d="M196.439,56.827c1.967-1.009,5.158-1.008,7.123,0l122.877,63.014  c1.967,1.01,3.562,3.612,3.562,5.816v148.687c0,2.203-1.598,4.81-3.562,5.816l-122.877,63.015c-1.967,1.009-5.158,1.008-7.123,0  L73.562,280.16c-1.967-1.009-3.562-3.613-3.562-5.816V125.657c0-2.204,1.597-4.81,3.562-5.816L196.439,56.827z" fill="#FFFFFF" id="path-1_8_"/><polygon fill="#2F3238" points="340,113 200,186.816 60,113 60,137.737 190,207.624 190,349 211,349 211,207.087 340,137.737 "/></svg>