<?xml version="1.0" ?><!DOCTYPE svg  PUBLIC '-//W3C//DTD SVG 1.1//EN'  'http://www.w3.org/Graphics/SVG/1.1/DTD/svg11.dtd'><svg enable-background="new 0 0 200 200" height="200px" id="header-burger-light" version="1.1" viewBox="0 0 200 200" width="200px" xml:space="preserve" xmlns="http://www.w3.org/2000/svg" xmlns:xlink="http://www.w3.org/1999/xlink"><g><path fill="#222222" d="M37.438,94.088l128.553,0.003l0.074-0.003c4.08-0.167,10.074-3.577,9.855-12.284c-0.26-10.43-15.746-28.082-72.142-28.082   c-0.68,0-1.363,0.002-2,0.008c-58.039-0.434-73.934,17.52-74.196,28.074C27.365,90.511,33.358,93.921,37.438,94.088z    M99.725,60.921c0.659,0,1.33,0.002,2.054,0.008c54.313-0.396,66.806,15.522,66.945,21.054c0.098,3.949-1.775,4.777-2.957,4.907   H37.68c-0.616-0.043-3.009-0.496-2.899-4.908C34.916,76.519,47.14,60.921,99.725,60.921z"/><path fill="#222222" d="M31.708,98.928c-1.32,0-2.4,1.08-2.4,2.4v2.4c0,1.32,1.08,2.4,2.4,2.4h140.088c1.32,0,2.4-1.08,2.4-2.4v-2.4   c0-1.32-1.08-2.4-2.4-2.4H31.708z"/><path fill="#222222" d="M176.642,114.8c-1.1-2.5-3.919-4.321-6.702-4.331l-134.757-0.492c-2.548,0-5.399,1.474-6.781,3.507   c-3.148,4.634-8.054,13.672-5.549,22.14c1.518,5.13,5.411,9.049,11.572,11.646l0.67,0.283H164.06l0.424-0.105   c0.377-0.093,9.275-2.37,13.349-10.646C180.808,130.761,180.407,123.359,176.642,114.8z M35.182,117.177l134.64,0.485   c0.075,0.016,0.206,0.09,0.28,0.153c1.98,4.537,2.756,8.495,2.375,11.849c-5.323-4.095-15.117-9.81-27.226-8.556   c-7.301,0.756-13.023,3.243-17.62,5.241c-6.68,2.903-9.53,3.966-13.004,1.071c-8.202-6.827-13.368-6.52-18.846-6.199   c-1.306,0.077-2.656,0.157-4.097,0.133c-3.417-0.037-6.701,2.039-10.509,4.467c-7.463,4.755-15.177,9.67-25.18,2.107   c-10.374-7.84-18.844-7.401-24.611-5.155c1.005-2.192,2.162-4.052,2.928-5.183C34.469,117.424,34.965,117.192,35.182,117.177z    M163.103,140.354H36.577c-3.745-1.707-5.979-3.927-6.82-6.772c-0.139-0.47-0.226-0.952-0.29-1.439   c2.516-2.314,10.239-7.505,22.185,1.528c5.22,3.946,10.113,5.386,14.602,5.385c7.549-0.001,13.948-4.077,18.791-7.164   c2.337-1.489,5.242-3.34,6.498-3.34c0.007,0,0.014,0,0.02,0c1.717,0.024,3.271-0.064,4.644-0.144   c4.864-0.288,7.802-0.462,13.813,4.545c7.022,5.847,13.866,2.874,20.482-0.002c4.358-1.894,9.298-4.041,15.493-4.682   c10.69-1.107,19.499,4.92,23.399,8.173C167.064,138.902,164.116,140.023,163.103,140.354z"/><circle fill="#222222" cx="53.923" cy="81.38" r="3.6"/><circle fill="#222222" cx="70.923" cy="72.48" r="3.6"/><circle fill="#222222" cx="84.523" cy="80.48" r="3.6"/><circle fill="#222222" cx="112.923" cy="67.88" r="3.6"/><circle fill="#222222" cx="120.123" cy="79.68" r="3.6"/><circle fill="#222222" cx="140.323" cy="73.906" r="3.6"/><circle fill="#222222" cx="158.523" cy="81.106" r="3.6"/></g></svg>
